# xmcd
#
# Track frame offsets:
#	150
#	35997
#	70267
#	120157
#	173562
#	252283
#	276400
#	316482
#	326944
#
# Disc length: 4643 seconds
#
# Revision: 0
# Processed by: cddbd v1.5.2PL0 Copyright (c) Steve Scherf et al.
# Submitted via: audiograbber 1.83.01
#
DISCID=85122109
DTITLE=Grateful Dead - 93-09-26 Boston Garden, Boston MA
DYEAR=1900
DGENRE=
TTITLE0=Saint Of Circumstance
TTITLE1=Ship Of Fools
TTITLE2=Truckin'
TTITLE3=Drums
TTITLE4=Space
TTITLE5=I Need A Miracle
TTITLE6=Standing On The Moon
TTITLE7=Crowd and Tuning
TTITLE8=Rain
EXTD=
EXTT0=
EXTT1=
EXTT2=
EXTT3=
EXTT4=
EXTT5=
EXTT6=
EXTT7=
EXTT8=
PLAYORDER=
